<svg xmlns="http://www.w3.org/2000/svg" viewBox="0 0 1600 900">
  <defs>
    <linearGradient id="sky" x1="0" y1="0" x2="0" y2="1"><stop stop-color="#08294a"/><stop offset=".58" stop-color="#173e5c"/><stop offset="1" stop-color="#071321"/></linearGradient>
    <linearGradient id="road" x1="0" y1="0" x2="0" y2="1"><stop stop-color="#162a38"/><stop offset="1" stop-color="#07111b"/></linearGradient>
    <filter id="glow"><feGaussianBlur stdDeviation="9" result="b"/><feMerge><feMergeNode in="b"/><feMergeNode in="SourceGraphic"/></feMerge></filter>
  </defs>
  <rect width="1600" height="900" fill="url(#sky)"/>
  <circle cx="1180" cy="160" r="180" fill="#2c7691" opacity=".18"/>
  <g fill="#102d43" stroke="#1a526d" stroke-width="5">
    <path d="M0 520V170H245V520Z"/><path d="M205 520V80H430V520Z"/><path d="M390 520V230H610V520Z"/><path d="M570 520V125H770V520Z"/><path d="M740 520V205H970V520Z"/><path d="M930 520V85H1180V520Z"/><path d="M1140 520V180H1370V520Z"/><path d="M1330 520V115H1600V520Z"/>
  </g>
  <g fill="#ffd46b" opacity=".74">
    <g id="windows"><rect x="40" y="220" width="32" height="22"/><rect x="95" y="220" width="32" height="22"/><rect x="150" y="220" width="32" height="22"/><rect x="40" y="280" width="32" height="22"/><rect x="95" y="280" width="32" height="22"/><rect x="150" y="280" width="32" height="22"/></g>
    <use href="#windows" x="210" y="-65"/><use href="#windows" x="420" y="60"/><use href="#windows" x="600" y="-20"/><use href="#windows" x="790" y="35"/><use href="#windows" x="1000" y="-45"/><use href="#windows" x="1230" y="25"/><use href="#windows" x="1430" y="-15"/>
  </g>
  <path d="M0 505H1600V900H0Z" fill="url(#road)"/>
  <path d="M0 585 Q800 510 1600 585" fill="none" stroke="#4be6f6" stroke-width="8" opacity=".42" filter="url(#glow)"/>
  <path d="M800 520 L1000 900 H600Z" fill="#0d1d28"/>
  <path d="M795 580 L805 580 L835 900 H765Z" fill="#ffc94f" opacity=".72"/>
  <g transform="translate(1030 500)"><rect width="260" height="105" rx="22" fill="#071626" stroke="#55e9fa" stroke-width="7"/><text x="130" y="67" text-anchor="middle" font-family="Arial Black" font-size="38" fill="#5cecff">BYTE LAB</text></g>
  <g transform="translate(145 475)"><rect width="250" height="100" rx="20" fill="#071626" stroke="#ffca50" stroke-width="7"/><text x="125" y="64" text-anchor="middle" font-family="Arial Black" font-size="34" fill="#ffd05a">CODE SHOP</text></g>
  <g fill="#4ce7fa" filter="url(#glow)"><circle cx="1320" cy="250" r="8"/><circle cx="1260" cy="220" r="5"/><circle cx="310" cy="145" r="6"/><circle cx="870" cy="170" r="5"/></g>
</svg>
