<svg xmlns="http://www.w3.org/2000/svg" viewBox="0 0 1080 1920">
  <defs><linearGradient id="sky" x1="0" y1="0" x2="0" y2="1"><stop stop-color="#092d51"/><stop offset=".55" stop-color="#123b57"/><stop offset="1" stop-color="#030a14"/></linearGradient><linearGradient id="fade" x1="0" y1="0" x2="0" y2="1"><stop offset=".45" stop-color="#030a14" stop-opacity="0"/><stop offset="1" stop-color="#030a14"/></linearGradient><filter id="glow"><feGaussianBlur stdDeviation="12" result="b"/><feMerge><feMergeNode in="b"/><feMergeNode in="SourceGraphic"/></feMerge></filter></defs>
  <rect width="1080" height="1920" fill="url(#sky)"/>
  <g fill="#102d43" stroke="#1d5570" stroke-width="5"><path d="M0 1260V420H220V1260Z"/><path d="M170 1260V250H390V1260Z"/><path d="M345 1260V530H570V1260Z"/><path d="M525 1260V330H750V1260Z"/><path d="M700 1260V460H920V1260Z"/><path d="M875 1260V280H1080V1260Z"/></g>
  <g fill="#ffd36b" opacity=".8"><path d="M60 500h45v32H60zm75 0h45v32h-45zM60 580h45v32H60zm75 0h45v32h-45z"/><path d="M245 350h45v32h-45zm75 0h45v32h-45zM245 430h45v32h-45zm75 0h45v32h-45z"/><path d="M610 420h45v32h-45zm75 0h45v32h-45zM610 500h45v32h-45zm75 0h45v32h-45z"/><path d="M930 380h45v32h-45zm65 0h45v32h-45zM930 460h45v32h-45zm65 0h45v32h-45z"/></g>
  <path d="M0 1160H1080V1920H0Z" fill="#081420"/><path d="M0 1270 Q540 1160 1080 1270" fill="none" stroke="#55e9fa" stroke-width="12" opacity=".5" filter="url(#glow)"/>
  <g transform="translate(80 90)"><rect width="920" height="520" rx="85" fill="#06172a" fill-opacity=".93" stroke="#55e9fa" stroke-width="12"/><text x="460" y="195" text-anchor="middle" font-family="Arial Black" font-size="132" fill="#5cecff" stroke="#05213a" stroke-width="8" paint-order="stroke">PYTHA</text><text x="460" y="380" text-anchor="middle" font-family="Arial Black" font-size="210" fill="#ffbe34" stroke="#542900" stroke-width="11" paint-order="stroke">GO</text><text x="460" y="475" text-anchor="middle" font-family="Arial Black" font-size="48" letter-spacing="9" fill="white">CODE BOROUGH</text></g>
  <g transform="translate(195 970)"><circle cx="240" cy="230" r="190" fill="#ef5134" opacity=".12"/><path d="M240 60c110 0 190 80 190 190S350 440 240 440 50 360 50 250 130 60 240 60Z" fill="#b97a51" opacity=".95"/><path d="M90 250h300v330H90z" fill="#d63c2b"/><path d="M130 230h220v350H130z" fill="#126d7d"/><rect x="130" y="100" width="220" height="55" rx="25" fill="#1b5e77" stroke="#5cecff" stroke-width="10"/><path d="M130 115Q145 20 240 20t110 95l-50-30-60 25-55-28Z" fill="#17212b"/><circle cx="205" cy="210" r="9"/><circle cx="275" cy="210" r="9"/><path d="M200 250q40 35 80 0" fill="none" stroke="#68382e" stroke-width="9"/></g>
  <g transform="translate(635 1110)"><ellipse cx="190" cy="370" rx="135" ry="25" fill="#00111f" opacity=".6"/><rect x="70" y="115" width="240" height="190" rx="80" fill="#dfeaf0" stroke="#5d8498" stroke-width="12"/><rect x="105" y="145" width="170" height="110" rx="48" fill="#061827" stroke="#2b94b4" stroke-width="9"/><circle cx="160" cy="195" r="16" fill="#5ef2ff"/><circle cx="225" cy="195" r="16" fill="#5ef2ff"/><path d="M158 225q35 30 70 0" fill="none" stroke="#70f3ff" stroke-width="10"/><rect x="100" y="280" width="180" height="110" rx="42" fill="#dfeaf0" stroke="#5d8498" stroke-width="10"/><rect x="145" y="312" width="90" height="38" rx="15" fill="#0b3348" stroke="#55e9fa" stroke-width="7"/></g>
  <rect width="1080" height="1920" fill="url(#fade)"/>
  <text x="540" y="1760" text-anchor="middle" font-family="Arial Black" font-size="46" fill="#ffd05a">LEARN PYTHON. RESTORE THE CITY.</text>
</svg>
