<svg xmlns="http://www.w3.org/2000/svg" viewBox="0 0 720 1280" role="img" aria-label="Neon Code Borough title screen"><defs><linearGradient id="sky" x1="0" y1="0" x2="0" y2="1"><stop stop-color="#071a36"/><stop offset=".55" stop-color="#0b2440"/><stop offset="1" stop-color="#030a14"/></linearGradient><filter id="glow"><feGaussianBlur stdDeviation="6" result="b"/><feMerge><feMergeNode in="b"/><feMergeNode in="SourceGraphic"/></feMerge></filter></defs><rect width="720" height="1280" fill="url(#sky)"/><g stroke="#5cecff" stroke-opacity=".18"><path d="M0 850h720M0 940h720M0 1040h720M0 1160h720"/><path d="M120 0v1280M280 0v1280M460 0v1280M620 0v1280"/></g><g fill="#0e2a45"><rect x="40" y="360" width="120" height="520"/><rect x="198" y="250" width="160" height="630"/><rect x="400" y="320" width="110" height="560"/><rect x="550" y="210" width="120" height="670"/></g><g fill="#ffd05a" opacity=".9"><rect x="76" y="410" width="28" height="20"/><rect x="244" y="320" width="30" height="20"/><rect x="602" y="280" width="28" height="20"/><rect x="432" y="390" width="28" height="20"/></g><circle cx="360" cy="610" r="82" fill="#ffd05a" filter="url(#glow)"/><text x="360" y="630" text-anchor="middle" font-family="monospace" font-size="76">🐍</text><path d="M110 930c140-90 360-90 500 0v260H110z" fill="#071321" stroke="#5cecff" stroke-width="6" opacity=".92"/><text x="360" y="1020" text-anchor="middle" font-family="Arial Black,Arial" font-size="68" fill="#5cecff" filter="url(#glow)">PYTHAGO</text><text x="360" y="1080" text-anchor="middle" font-family="monospace" font-size="28" fill="#dff8ff" letter-spacing="6">CODE BOROUGH</text></svg>
